<?xml version="1.0" encoding="UTF-8"?>
<svg id="_레이어_2" data-name="레이어 2" xmlns="http://www.w3.org/2000/svg" viewBox="0 0 595.28 595.28">
  <defs>
    <style>
      .cls-1 {
        fill: #ffefbd;
      }

      .cls-2 {
        fill: none;
        stroke: #ffefbd;
        stroke-linecap: round;
        stroke-linejoin: round;
        stroke-width: 18.61px;
      }
    </style>
  </defs>
  <rect class="cls-2" x="46.96" y="216.65" width="417.55" height="310.03"/>
  <line class="cls-2" x1="49.56" y1="373.51" x2="461.91" y2="373.51"/>
  <path class="cls-2" d="M242.46,271.66c-11.26-.07-22.99-.24-33.03-5.3-3.09-1.56-6.25-4.04-6.45-7.47-.11-1.9.74-3.74,1.8-5.33,6.97-10.42,21.51-12.01,34.13-12.57,9.53-.43,19.05-.85,28.58-1.28,7.7-.34,15.68-.64,22.82,2.23,7.14,2.87,13.21,9.86,12.37,17.44-.28,2.53-1.39,5.08-3.47,6.57-2.29,1.64-5.32,1.77-8.15,1.84-16.43.38-32.87.77-48.6,3.87Z"/>
  <path class="cls-2" d="M245.33,435.29c-11.26-.07-22.99-.24-33.03-5.3-3.09-1.56-6.25-4.04-6.45-7.47-.11-1.9.74-3.74,1.8-5.33,6.97-10.42,21.51-12.01,34.13-12.57,9.53-.43,19.05-.85,28.58-1.28,7.7-.34,15.68-.64,22.82,2.23,7.14,2.87,13.21,9.86,12.37,17.44-.28,2.53-1.39,5.08-3.47,6.57-2.29,1.64-5.32,1.77-8.15,1.84-16.43.38-32.87.77-48.6,3.87Z"/>
  <path class="cls-2" d="M430.99,529.51c-.1,16.65.51,33.3,1.82,49.9,7.57-.49,15.14-.97,22.71-1.46.89-.06,1.81-.12,2.58-.57,1.61-.95,1.87-3.11,1.95-4.97.6-14.84.82-29.7.67-44.55"/>
  <path class="cls-2" d="M49.57,529.51c-.1,16.65.51,33.3,1.82,49.9,7.57-.49,15.14-.97,22.71-1.46.89-.06,1.81-.12,2.58-.57,1.61-.95,1.87-3.11,1.95-4.97.6-14.84.82-29.7.67-44.55"/>
  <path class="cls-2" d="M107.45,215.39c-17.67-30.04-14.79-70.65,6.95-97.95,4.48-5.62,9.68-10.74,13.19-17,3.32-5.92,4.96-12.58,6.76-19.11,3.61-13.08,7.98-25.95,13.1-38.53.49-1.2,1.06-2.49,2.21-3.11,1.4-.75,3.11-.24,4.6.29,17.13,6.18,33.28,18.3,46.72,29.79,34.98-.37,69.98-2.51,103.67.18,12.91-11.21,25.81-22.42,38.72-33.64,2.89-2.51,6.18-5.16,10.01-5.03,5.69.2,9.12,6.18,11.23,11.41,6.26,15.47,11,31.54,13.49,48.69,16.06,12.43,27.39,30.71,31.3,50.51,1.77,8.96,2.07,18.15,1.89,27.28-.3,15.03-1.89,30.03-4.76,44.79"/>
  <path class="cls-2" d="M437.52,146.42c-.72.49-7.72,1.31-23.11,4.95"/>
  <ellipse class="cls-1" cx="253.63" cy="167.76" rx="8.7" ry="6.46"/>
  <path class="cls-2" d="M414.41,178.52c9.17,1.14,18.34,2.29,27.5,3.43"/>
  <path class="cls-2" d="M70,155.47c6.41.76,12.82,1.51,19.23,2.27l1.37.45"/>
  <path class="cls-2" d="M71.85,190.42c9.56-3.33,14.94-6.67,24.5-10"/>
  <ellipse class="cls-1" cx="206.93" cy="148.62" rx="9.79" ry="8.9"/>
  <ellipse class="cls-1" cx="300.45" cy="148.62" rx="9.79" ry="8.9"/>
  <path class="cls-2" d="M244.93,182.6c2.41-1.39,6.88-3.83,7.58-4.13,1.19-.51,2.56-.15,3.77.31,2.42.91,4.7,2.2,6.74,3.81"/>
  <path class="cls-2" d="M467.44,448.08c13.07-1,23.04-11.98,27.26-23.59,4.22-11.61,4.18-24.13,6.19-36.25,1.6-9.65,4.6-19.26,10.39-27.38,5.79-8.12,14.65-14.64,24.91-16.47,6.65-1.18,13.94-.24,19.35,3.55,5.41,3.8,8.48,10.71,6.45,16.75-2.47,7.34-10.93,11.15-16.3,16.98-5.92,6.42-7.93,15.24-8.36,23.71-.43,8.47.51,16.99-.45,25.42-.95,8.31-3.78,16.43-8.23,23.68-12.3,20-35.6,31.69-58.63,40.02"/>
</svg>