<?xml version="1.0" encoding="UTF-8"?>
<svg id="_레이어_2" data-name="레이어 2" xmlns="http://www.w3.org/2000/svg" viewBox="0 0 595.28 595.28">
  <defs>
    <style>
      .cls-1 {
        fill: #ffefbd;
      }

      .cls-2 {
        fill: none;
        stroke: #ffefbd;
        stroke-linecap: round;
        stroke-linejoin: round;
        stroke-width: 18.37px;
      }
    </style>
  </defs>
  <polyline class="cls-2" points="320.64 193.25 320.64 56.68 561.19 56.68 561.19 390.26 320.64 390.26 320.64 374.73"/>
  <path class="cls-2" d="M378.29,249.64c-9.12-13.74-14.57-30.45-12.71-46.9.97-8.57,3.85-16.78,6.72-24.9,7.54-21.38,15.08-42.76,22.62-64.14,11.29,8.4,20.5,19.66,26.53,32.47,13.97-1.49,27.94-2.98,41.91-4.47,3.46-.37,6.97-.75,10.17-2.13,4.1-1.77,7.35-5.03,10.84-7.83,6.56-5.27,14.26-9.09,22.39-11.11,4.02,6.35,3.49,14.45,3.94,21.98.45,7.53,2.86,16.1,9.71,19.06"/>
  <path class="cls-2" d="M504.07,207.78c8.5-5.22,12.19-15.59,15.11-25.21,4.67-15.41,8.89-30.96,12.65-46.62,2.44-10.15,4.72-20.44,9.09-29.9,4.37-9.46,11.11-18.18,20.35-22.82"/>
  <path class="cls-2" d="M379.58,251.12c-14.21,2.48-27.22,11.28-34.93,23.62"/>
  <path class="cls-2" d="M366.21,334.59c3.14-3.68,7.34-6.41,11.95-7.76.92-.27,1.91-.49,2.83-.23,1.96.55,2.77,2.89,3.09,4.92.9,5.76.3,11.63-.3,17.43-1.23,11.91-2.47,23.83-3.7,35.74"/>
  <path class="cls-2" d="M537.19,385.12c1.23-27.73-.58-55.6-5.38-82.93-.26-1.47-.52-3.02-.06-4.44.38-1.15,1.19-2.08,1.98-2.99,9.04-10.29,18.07-20.58,27.11-30.87"/>
  <path class="cls-2" d="M437.95,278.05c-4.74-4.64-9.81-8.95-15.14-12.89-6.6,11.42-7.26,26.14-1.7,38.11,7.5-2.32,14.62-5.91,20.98-10.56,7.52,2.63,14.82,5.89,21.82,9.72,2.72-1.01,3.6-4.4,4.09-7.29,2.06-12.12,4.02-25.08-.93-36.3-4.94,2.74-9.87,5.48-14.81,8.22-4.64,2.57-9.87,6.07-14.3,10.98Z"/>
  <path class="cls-2" d="M451.13,197.28c4.99-1.34,9.98-2.69,14.98-4.03"/>
  <path class="cls-2" d="M390.67,240.94c31.4-15.52,66.36-23.63,102.43-20.05,9.26-6.99,20.16-11.75,31.54-13.76,1.63-.29,3.33-.55,4.66-1.54,1.02-.76,1.72-1.88,2.39-2.97,1.46-2.37,2.92-4.74,4.38-7.11,1.76-2.85,3.59-5.79,6.3-7.73,2.71-1.94,6.57-2.66,9.35-.82,3.43,2.26,3.84,7.13,3.61,11.26"/>
  <path class="cls-2" d="M493.93,219.86c-.37,7.08,4.48,13.25,9.35,18.34,4.24,4.43,8.83,8.72,14.41,11.21,5.58,2.49,12.35,2.94,17.61-.18,4.08,7.62,15.49,9.84,22.06,4.28"/>
  <path class="cls-2" d="M535.24,219.98c-3.48,2.67-7.38,6.48-6.2,10.74.87,3.14,4.47,4.92,7.66,4.5,3.19-.42,5.93-2.58,7.97-5.1,3-3.71,4.85-8.5,4.48-13.28,1.96-1.72,1.89-8.97-13.91,3.14Z"/>
  <path class="cls-2" d="M447.81,225.47c2.59,6.96,8.46,12.26,15,15.64,6.54,3.38,13.79,5.07,20.94,6.74,1.91-5.66-.68-12.1-4.96-16.23-4.28-4.13-9.96-6.39-30.98-6.14Z"/>
  <ellipse class="cls-1" cx="413.15" cy="197.28" rx="7.74" ry="8.49"/>
  <path class="cls-2" d="M320.29,271.6c25.36,13.31,40.69,30.64,40.69,49.57,0,42-75.4,76.06-168.41,76.06S24.15,363.18,24.15,321.18c0-19.17,15.71-36.69,41.63-50.06"/>
  <path class="cls-2" d="M337.97,233.37c0,42.01-64.81,76.06-144.82,76.06s-144.82-34.05-144.82-76.06c0-23.28,19.8-44.11,51.11-58.04,4.49-12.4,9.44-24.57,14.62-36.74,1.15-2.57,2.3-5.15,4.26-7.14,1.96-2.11,4.72-3.39,7.48-2.81,1.73.47,3.22,1.64,4.61,2.81,8.75,7.37,21.07,18.96,29.36,27.97,10.71-1.4,21.87-2.11,33.38-2.11,10.25,0,20.38.59,30.05,1.64,6.45-9.36,15.31-21.76,22.45-29.49,2.88-3.04,6.1-6.32,10.25-6.67,3.8-.23,7.48,1.99,9.9,5.15,2.3,3.04,3.68,6.79,4.95,10.41,3.11,9.24,7.83,24.57,11.28,34.87,34.08,14.04,55.95,35.69,55.95,60.14Z"/>
  <ellipse class="cls-1" cx="201.2" cy="216.69" rx="8.63" ry="8.19"/>
  <ellipse class="cls-1" cx="257.14" cy="212.38" rx="8.63" ry="7.61"/>
  <ellipse class="cls-1" cx="232.62" cy="230.15" rx="6.19" ry="5.27"/>
  <path class="cls-2" d="M271.2,539c0,5.73-7.14,10.41-15.89,10.41h-117.77c-8.86,0-16-4.68-16-10.41s7.14-10.41,16-10.41l32.28-6.25c6.18-1.2,10.66-6.69,10.66-13.09v-112.07h31.89v113.91c0,5.33,3.73,9.91,8.88,10.91l34.06,6.59c8.75,0,15.89,4.68,15.89,10.41Z"/>
  <line class="cls-2" x1="140.86" y1="397.19" x2="140.86" y2="444.35"/>
  <ellipse class="cls-2" cx="140.86" cy="460.93" rx="12.38" ry="12.58"/>
  <path class="cls-2" d="M224.43,243.28c2.64-1.9,6.23-3.86,6.86-4.16,1.08-.51,2.32-.15,3.41.31,2.19.92,4.26,2.22,6.1,3.83"/>
</svg>