<?xml version="1.0" encoding="UTF-8"?>
<svg id="_레이어_2" data-name="레이어 2" xmlns="http://www.w3.org/2000/svg" viewBox="0 0 595.28 595.28">
  <defs>
    <style>
      .cls-1 {
        stroke-width: 11.7px;
      }

      .cls-1, .cls-2 {
        fill: none;
        stroke: #ffefbd;
        stroke-linecap: round;
        stroke-linejoin: round;
      }

      .cls-3 {
        fill: #ffefbd;
      }

      .cls-2 {
        stroke-width: 17.55px;
      }
    </style>
  </defs>
  <rect class="cls-2" x="45.49" y="49.61" width="381.19" height="511.55"/>
  <path class="cls-1" d="M445.18,449c1.01,1.45,9.32.3,10.95,0,2.02-.37,4.03-.74,6.05-1.12.48,6.08,1.46,12.11,2.93,18"/>
  <line class="cls-2" x1="236.08" y1="49.61" x2="236.08" y2="561.16"/>
  <line class="cls-2" x1="236.08" y1="296" x2="426.68" y2="296"/>
  <line class="cls-2" x1="45.49" y1="266.13" x2="236.08" y2="266.13"/>
  <rect class="cls-2" x="282.05" y="93.34" width="103.42" height="155.41"/>
  <path class="cls-2" d="M430.56,362.1c6.1-5.37,12.2-10.75,18.3-16.12,5.12-4.51,11.63-9.29,17.74-6.65,6.75,2.92,8.03,12.6,8.26,20.55.19,6.49.37,12.97.37,21.28,9.71,2.4,19.08,6.41,27.71,11.86,2.13,1.35,4.26,2.8,6.64,3.47,3.44.96,7.06.2,10.54-.56,10.97-2.4,21.95-4.8,32.92-7.2,1.63-.36,3.39-.7,4.91.04,2.5,1.22,3.21,4.75,3.15,7.75-.27,14.31-9.95,26.09-14.41,39.54-2.64,7.94-3.43,16.46-5.42,24.62-7.82,32.11-35.84,56.97-69.12,59.67-4.1,9-11.13,16.08-18.94,21.37-7.81,5.29-16.43,8.95-24.99,12.58"/>
  <path class="cls-3" d="M443.28,412.06c2.03-3.32,6.43-3.98,9.81-1.49,3.39,2.49,4.49,7.2,2.45,10.52-2.03,3.32-6.43,3.98-9.81,1.49-3.39-2.49-4.49-7.2-2.45-10.52Z"/>
  <path class="cls-3" d="M488.25,439.04c1.97-3.22,6.32-3.81,9.7-1.31,3.39,2.49,4.53,7.12,2.56,10.34-1.97,3.22-6.32,3.81-9.7,1.31-3.39-2.49-4.53-7.12-2.56-10.34Z"/>
  <path class="cls-3" d="M458.97,441.92c1.82-2.97,6.04-3.36,9.43-.86,3.39,2.49,4.66,6.92,2.84,9.89-1.82,2.97-6.04,3.36-9.43.86-3.39-2.49-4.66-6.92-2.84-9.89Z"/>
</svg>