<?xml version="1.0" encoding="UTF-8"?>
<svg id="_레이어_2" data-name="레이어 2" xmlns="http://www.w3.org/2000/svg" viewBox="0 0 595.28 595.28">
  <defs>
    <style>
      .cls-1 {
        fill: #ffefbd;
      }

      .cls-2 {
        stroke-width: 18.19px;
      }

      .cls-2, .cls-3 {
        fill: none;
        stroke: #ffefbd;
        stroke-linecap: round;
        stroke-linejoin: round;
      }

      .cls-3 {
        stroke-width: 12.13px;
      }
    </style>
  </defs>
  <path class="cls-2" d="M244.75,208.47c-4.84,4.07-9.71,8.11-14.6,12.12-2.61,2.14-5.35,4.33-8.58,4.98-3.23.65-7.09-.76-8.26-4.03-1.36-3.82,1.68-7.54,2.85-8.67,3.94-3.83,7.95-7.59,11.96-11.34,2.33-2.18,4.67-4.37,7-6.55"/>
  <path class="cls-2" d="M287.59,146.12c5.56-5.13,11.17-10.29,16.84-15.47-6.44-9.63-13.19-20.36-12.22-32.12.79-9.64,6.67-17.89,12.79-25.06,9.22-10.8,19.55-20.54,30.74-29,2.73-2.06,5.58-4.08,8.84-4.94,3.25-.86,7.01-.34,9.4,2.15.92.96,1.6,2.16,2.6,3.01,2.99,2.54,7.6,1.13,10.98,3.03,4.65,2.61,4.67,9.64,7.57,14.3,3.73,5.99,12.37,8.21,13.8,15.23.79,3.86-1.04,7.92-.24,11.77,1.35,6.54,9.36,9.44,11.13,15.87,1.85,6.74-3.97,12.88-9.18,17.21-13.91,11.55-28.09,23.25-44.58,29.99-6.93,2.83-15.18,4.6-21.43.34-3.23-2.2-5.46-5.74-9.02-7.29-4.79,4.55-9.6,9.07-14.45,13.55"/>
  <path class="cls-2" d="M392.43,311.51c2.07.1,7.31-.79,8.02-.79,1.21,0,2.24.88,3.11,1.78,1.73,1.81,3.21,3.9,4.35,6.19"/>
  <path class="cls-2" d="M495.29,432.34c6.79,6.2,9.59,16.06,11.94,25.38,7.34,29.03,13.56,60.65,3.26,88.59-1.89,5.13-4.34,10.06-7.64,14.25-6.22,7.88-15.24,12.76-24.59,14.79-15.93,3.46-33.18-1.24-45.75-12.46-12.57-11.22-20.2-28.73-20.24-46.44-.02-7.61,1.53-15.72,6.48-21.09,3.97-4.31,9.6-6.3,15.13-7.22,9.76-1.63,20.53-.09,27.93,7.05,7.39,7.13,9.77,20.79,3.22,28.85,3.88,1.53,7.77,3.06,11.65,4.59"/>
  <path class="cls-2" d="M255.95,555.98c18.97-113.11-7.35-228.91-5.95-346.81-14.7-8.77-20.87-31.21-13.02-47.36,7.85-16.14,28.35-23.16,42.83-14.72,9.49,4.29,18.8,10.31,24.39,19.72,5.58,9.41,6.44,22.84,1.32,33.25,2.2,17.94,8.06,35.33,17.04,50.55"/>
  <path class="cls-2" d="M288.95,264.41c5.62,5.94,11.83,11.23,18.47,15.74"/>
  <path class="cls-2" d="M273.86,293.7c9.65,1.69,19.34,3.2,29.04,4.54"/>
  <path class="cls-2" d="M527.64,396.19c7.09,4.51,13.85,9.64,20.19,15.33"/>
  <path class="cls-2" d="M536.96,376.58c9.06,2.85,18.11,5.7,27.17,8.54"/>
  <path class="cls-3" d="M301.17,78.91c13.5,25.1,29.65,48.6,48.06,69.9"/>
  <path class="cls-3" d="M327.27,54.25c-1.53,3.55-3.1,7.27-2.97,11.17.13,3.91,2.54,8.02,6.19,8.56,3.52.51,7.14-2.33,10.48-1.04-.2,5.82.35,11.67,1.63,17.33.31,1.37.7,2.79,1.65,3.77,1.07,1.1,2.64,1.42,4.12,1.68,3.51.63,7.02,1.26,10.53,1.89.77.14,1.59.31,2.12.92.53.62.62,1.52.61,2.36-.06,5.59-2.9,12.12.72,16.19,1.64,1.84,4.13,2.45,6.47,2.96,3.23.71,6.45,1.42,9.68,2.13,1.82.4,3.75.86,5.05,2.27,1.3,1.41,0,3.69-1.56,4.76"/>
  <g>
    <path class="cls-2" d="M31.15,417.62c6.3,15.91,13.48,31.4,21.5,46.35,10.92-6.88,22.3-13.88,34.84-15.04,12.54-1.15,26.59,5.29,30.95,18.26.72,2.13,1.64,4.81,3.7,4.91.81.04,1.58-.38,2.3-.79,14.94-8.44,29.88-16.87,44.81-25.31-7.26-13.22-12.1-28.05-14.12-43.33-1.16-8.75-1.24-18.33,3.28-25.64,3.83-6.2,10.32-9.7,16.67-12.42,6.53-2.79,13.82-5.05,20.43-2.49-12.26-15.46-29.67-25.85-48.13-28.74-6.14-.96-12.41-1.11-18.55-.12-6.59,1.07-12.95,3.45-19.1,6.26-11.58,5.28-22.75,12.29-31.22,22.45-8.9,10.67-14.49,24.63-15.61,39.05-10.53,5.83-20.86,12.09-31.75,16.59Z"/>
    <path class="cls-2" d="M132.08,467.32c10.87,31.94,23.89,63,38.92,92.83-.47-1.1-.94-2.2-1.41-3.3"/>
    <path class="cls-2" d="M157.42,454.15c15.69,29.13,31.39,58.25,47.08,87.38"/>
  </g>
  <path class="cls-1" d="M374.09,271.61c1.98-4.07,7.43-5.14,12.18-2.4,4.75,2.74,6.99,8.27,5.01,12.34-1.98,4.07-7.43,5.14-12.18,2.4-4.75-2.74-6.99-8.27-5.01-12.34Z"/>
  <path class="cls-1" d="M436.42,303.22c2.08-4.28,7.88-5.36,12.96-2.43,5.08,2.94,7.52,8.79,5.44,13.06-2.08,4.28-7.88,5.36-12.96,2.43-5.08-2.94-7.52-8.79-5.44-13.06Z"/>
  <path class="cls-2" d="M330.1,369.01c-21.1-16.89-27.77-49.06-23.34-77.19,1.19-7.54,3.09-15.05,6.7-21.61,3.02-5.47,7.14-10.11,11.22-14.69,8.81-9.89,17.72-19.88,27.29-26.48,7.03-14.5,14.06-29.01,21.09-43.51,2.02-4.16,4.13-8.45,7.57-11.3,3.44-2.84,8.59-3.8,12-.93,2.56,2.15,3.54,5.81,4.37,9.21,3.52,14.39,7.04,28.77,15.07,44.78,33,3.2,62.29,23.36,93.69,43.71,12.34-7.6,25.13-14.34,38.27-20.14,2.24-.99,4.9-1.92,6.95-.53,1.17.8,1.87,2.2,2.39,3.6,3.17,8.53,1.45,18.19-.52,27.14-2.95,13.44-6.37,26.75-11.4,43.54,4.56,21.33.4,45.08-10.68,63.44-21.36,35.36-42.62,44.34-74.35,48.63"/>
  <path class="cls-1" d="M400.31,301.75c.86-3.39,4.96-5.08,9.15-3.77,4.19,1.31,6.89,5.13,6.03,8.52-.86,3.39-4.96,5.08-9.15,3.77-4.19-1.31-6.89-5.13-6.03-8.52Z"/>
</svg>