<?xml version="1.0" encoding="UTF-8"?>
<svg id="_레이어_2" data-name="레이어 2" xmlns="http://www.w3.org/2000/svg" viewBox="0 0 595.28 595.28">
  <defs>
    <style>
      .cls-1 {
        fill: #ffefbd;
      }

      .cls-2 {
        fill: none;
        stroke: #ffefbd;
        stroke-linecap: round;
        stroke-linejoin: round;
        stroke-width: 17.91px;
      }
    </style>
  </defs>
  <path class="cls-2" d="M333.34,355.81c-11.13-2.97-20.41-13.43-24.12-26.13-11.25-38.44,20.8-69.58,23.16-78.2,2.8-10.21,7.04-19.87,12.49-28.47.75-1.18,1.64-2.43,2.88-2.65,1.09-.19,2.14.47,3.08,1.13,9.56,6.76,17.55,16.57,22.91,29.27,30.97-9.11,41.97-4.75,65.75-1.08,7.22-12.39,16.5-20.27,27.11-28.62,5.47,7.38,9.96,34.34,12.9,43.51,3.73,11.64,8.54,16.78,13.39,27.97,8.16,18.85.04,40.16-23.55,65.08-10.8-.26-21.65,3.27-30.81,10.02-4.74,3.5-9.2,8.11-11.17,14.27-1.97,6.16-.76,14.08,3.92,17.69,3.14,2.42,7.13,2.54,10.89,2.58,9.63.1,19.26.2,28.89.31"/>
  <path class="cls-2" d="M372.66,361.24c10.92,4.52,23.02,3.75,33.94,8.25,10.92,4.5,21,18.03,16.83,30.73-3.91,11.91-17.23,14.72-27.99,13.16-16.29-2.35-31.64-10.35-47.84-13.47-10.89-2.09-21.99-1.95-33.02-1.8-29.61.4-56.85-1.58-86.46-1.18"/>
  <path class="cls-2" d="M307.31,278.27c-22.97-7.92-37.34-6.48-61.18-4.01-9.3.97-18.64,2.76-27.25,7.02-18.52,9.16-32.44,30.14-35.51,53.5-1.48,11.31-.49,23.26,3.94,33.44,4.43,10.18,12.53,18.38,22.04,20.71,6.73,1.65,15.07,1.18,18.76,8"/>
  <path class="cls-2" d="M221.16,326.5c11.63-.34,23.3,5.43,31.24,15.44,7.94,10.01,12.03,24.1,10.94,37.74,7.43-.48,14.64,6.68,15.49,15.39"/>
  <path class="cls-2" d="M181.48,324.86c-9.94,2.9-18.42,11.94-21.85,23.29-1.78,5.89-2.25,12.24-1.97,18.48.67,14.93,5.91,29.93,15.67,39.49,7.53,7.37,17.18,11.12,26.83,13.07,7.26,1.46,15.29,1.82,21.4-3.03,6.11-4.85,8.44-16.66,2.77-22.18"/>
  <path class="cls-2" d="M400.39,344.46c1.9-.44,3.69-1.47,5.15-2.95.5-.51.98-1.08,1.59-1.39,1.06-.53,2.28-.15,3.35.33,2.16.96,4.18,2.31,5.99,4"/>
  <path class="cls-2" d="M408.29,334.6c.4-2.44.55-4.94.42-7.42"/>
  <path class="cls-2" d="M475.62,315.05c7.44-1.3,16.32-2.36,24.2-1.97"/>
  <path class="cls-2" d="M473.73,334.94c7.4,3.25,16.2,1.85,22.77,7"/>
  <path class="cls-2" d="M300.22,319.17c7.9-1.63,15.94-2.27,23.96-1.93"/>
  <path class="cls-2" d="M303.05,349.36c8.22-5.64,17.26-9.64,26.6-11.78"/>
  <path class="cls-2" d="M492.89,289.31c16.9-10.39,40.08-9.18,52.65,1.84,11.46,10.05,16.58,27.56,17.43,44.35,1.22,24.34-5.46,49.12-18.4,68.16"/>
  <path class="cls-2" d="M476.38,355.86c.15,22.26-.36,44.53-1.55,66.75"/>
  <path class="cls-2" d="M150.13,428.37c-1.65-30.11-4.25-60.14-7.79-90.02-2-16.92-4.51-34.42-12.71-48.52-11.84-20.37-35.18-30.05-55.47-23.8-20.29,6.25-36.41,27.52-40.18,51.8-3.76,24.28,4.61,50.41,22.29,67.4-1.55,34.66,4.53,69.76,17.47,100.95,1.81,4.35,3.81,8.73,6.91,11.91,5.45,5.6,13.46,6.68,15.71,10.14,47.83,1.51,95.66,3.03,143.49,4.54,37.7,1.19,75.41,2.39,113.12,2.92,42.97.61,85.94.35,128.9-.93,11.17-.33,22.72-.83,32.81-6.49,14.88-8.34,24.17-26.84,27.62-45.81s1.91-38.64.36-57.96"/>
  <path class="cls-2" d="M473.11,516.95c-.36,14.2,1.78,30.45,11.84,38.3,8.36,6.51,20.8,4.26,27.1-4.91,3.67-5.34,5.22-12.25,6.22-19.01,1.07-7.23,1.61-14.56,1.63-21.9"/>
  <path class="cls-2" d="M96.54,507.75c-.65,9.7-.92,19.58,1.06,29.03,1.98,9.45,6.46,18.51,13.51,23.59,7.05,5.08,16.86,5.34,23.23-.86,5.42-5.27,7.51-13.97,8.04-22.23.53-8.26-.2-16.62.93-24.79"/>
  <path class="cls-2" d="M89.97,262.66c1.52-22.83,3.04-45.65,4.57-68.48,7.38-110.69,104.28-123.91,145.72-129.69,37.99-5.3,76.3-5.21,114.5-3.33,68.59,3.38,152.32,14.79,163.16,122.21,3.18,31.52,4.96,63.22,6.73,94.9"/>
  <ellipse class="cls-1" cx="375.95" cy="313.02" rx="8.48" ry="9.15"/>
  <ellipse class="cls-1" cx="439.49" cy="310.01" rx="8.48" ry="9.15"/>
</svg>