<?xml version="1.0" encoding="UTF-8"?>
<svg id="_레이어_2" data-name="레이어 2" xmlns="http://www.w3.org/2000/svg" viewBox="0 0 595.28 595.28">
  <defs>
    <style>
      .cls-1 {
        fill: none;
        stroke: #ffefbd;
        stroke-linecap: round;
        stroke-linejoin: round;
        stroke-width: 17.93px;
      }
    </style>
  </defs>
  <ellipse class="cls-1" cx="294.3" cy="232.11" rx="184.88" ry="130.32"/>
  <ellipse class="cls-1" cx="294.3" cy="234.74" rx="157.3" ry="104.56"/>
  <path class="cls-1" d="M330.57,204.23c2.87,4.15,4.49,8.86,4.49,13.85,0,16.74-18.25,30.31-40.76,30.31s-40.76-13.57-40.76-30.31c0-4.81,1.51-9.37,4.2-13.41"/>
  <ellipse class="cls-1" cx="294.3" cy="187.77" rx="40.76" ry="30.31"/>
  <path class="cls-1" d="M128.79,296.33c9.87,50.52,19.73,101.04,32.18,153.88,25.32,13.48,53.85,18.82,82.02,22.9,39.66,5.76,80.15,9.36,119.62,2.3,39.46-7.06,78.19-25.79,103.2-55.56,4.18-47.85,7.14-95.83,8.87-143.84"/>
  <path class="cls-1" d="M102.32,223.63c-20.96-3.19-43.48,3.61-58.42,19.25-14.94,15.64-21.3,40.1-14.47,60.98,4.49,13.73,14.16,25.24,25.78,33.25,2.83,1.95,5.78,3.71,8.8,5.31,22.36,11.86,48.97,14.77,73.21,8"/>
  <path class="cls-1" d="M107.2,263.89c-7.19-.84-14.76,1.18-20.3,6.03-5.54,4.84-8.8,12.56-7.91,20.04,1.25,10.5,10.18,18.59,19.88,21.74,9.7,3.15,20.12,2.34,30.25,1.49"/>
  <path class="cls-1" d="M479.95,197.17c19.36.26,39.86.85,56.19,11.69,14.47,9.6,23.76,26.6,25.94,44.33,2.18,17.72-2.36,35.97-11.09,51.35-3.56,6.28-7.94,12.26-13.85,16.17-4.17,2.75-8.93,4.36-13.69,5.71-15.9,4.49-32.47,6.37-48.92,5.53"/>
  <path class="cls-1" d="M484.8,235.8c10.37-2.29,21.85-.98,30.44,5.5,8.59,6.48,13.46,18.67,10.01,29.11-1.1,3.32-3.02,6.42-5.81,8.39-3.34,2.38-7.54,2.93-11.56,3.42-10.15,1.23-20.31,2.47-30.46,3.7"/>
  <path class="cls-1" d="M149.51,560.77c-2.58-15.37-2.05-31.29,1.54-46.44,1.04-4.41,2.38-8.83,4.85-12.57,2.78-4.2,6.82-7.29,10.78-10.29,1.9-1.44,3.87-2.91,6.17-3.39,2.64-.55,5.39.31,7.79,1.57,9.65,5.07,14.95,16.07,18.33,26.76,4.76,15.06,7.04,31.05,5.86,46.85"/>
  <path class="cls-1" d="M278.37,560.19c-3.97-15.47,4.28-31.28,12.88-44.56,4.78-7.39,11.51-15.49,20.01-14.43,6.02.75,10.54,6,13.91,11.25,9.02,14.07,14.08,30.86,14.39,47.77"/>
  <path class="cls-1" d="M404.76,555.66c1.47-19.5,10.74-37.31,19.8-54.45,2.27-4.3,4.79-8.85,9.02-11.03,4.21-2.17,9.42-1.46,13.5.95,4.08,2.41,7.17,6.33,9.61,10.51,7.6,13.05,9.46,28.74,11.13,43.9"/>
  <g>
    <path class="cls-1" d="M483.14,61.53c-1.73,17.93-1.8,36.04-.21,53.99"/>
    <path class="cls-1" d="M462.3,89.43c14.25-.29,28.5-.59,42.74-.88.76-.02,1.71-.18,1.91-.94s-1.41-.96-44.66,1.82Z"/>
  </g>
  <g>
    <path class="cls-1" d="M160.06,49.24c-8.75,13.31-15.57,28-20.16,43.4"/>
    <path class="cls-1" d="M120.73,60.75c16.14,8.62,32.28,17.25,48.42,25.87"/>
    <path class="cls-1" d="M137.33,44.25c1.05,10.8,3.35,21.46,6.82,31.7"/>
  </g>
</svg>