<?xml version="1.0" encoding="UTF-8"?>
<svg id="_레이어_2" data-name="레이어 2" xmlns="http://www.w3.org/2000/svg" viewBox="0 0 595.28 595.28">
  <defs>
    <style>
      .cls-1 {
        fill: #ffefbd;
      }

      .cls-2 {
        fill: none;
        stroke: #ffefbd;
        stroke-linecap: round;
        stroke-linejoin: round;
        stroke-width: 17.4px;
      }
    </style>
  </defs>
  <path class="cls-2" d="M252.21,279.64c-21.44,16.57-48.93,26.52-78.9,26.52-68.51,0-124.04-51.99-124.04-116.12s55.54-116.12,124.04-116.12,124.04,51.99,124.04,116.12c0,15.92-3.42,31.09-9.61,44.9"/>
  <ellipse class="cls-2" cx="173.31" cy="190.03" rx="30.08" ry="31.02"/>
  <path class="cls-2" d="M236.66,84.74c8.5-8.17,20.1-13.48,32.21-14.73,12.48-1.29,24.98,1.58,37.07,4.75,12.09,3.17,24.28,6.69,36.84,6.74,12.55.05,25.81-3.96,33.45-13.28"/>
  <path class="cls-2" d="M262.34,101.38c5.48-2.5,11.4-4.14,17.46-4.77,12.48-1.29,24.98,1.58,37.07,4.75,12.09,3.17,24.28,6.69,36.84,6.74,12.55.05,25.81-3.96,33.45-13.28"/>
  <path class="cls-2" d="M286.36,123.21c12.48-1.29,24.98,1.58,37.07,4.75,12.09,3.17,24.28,6.69,36.84,6.74,12.55.05,25.81-3.96,33.45-13.28"/>
  <path class="cls-2" d="M144.28,168.35c-16.11-6.81-27.37-22.68-27.84-39.23-.46-16.54,9.89-32.95,25.6-40.54,4.57-2.21,9.51-3.71,14.54-4.73,15.47-3.13,32.54-1.42,45.52,7.05,4.54,2.97,8.62,6.85,10.55,11.71,1.94,4.86,1.38,10.79-2.35,14.62-4.41,4.52-11.65,5.05-17.72,7.29-13.38,4.93-21.31,20.15-17.24,33.06"/>
  <path class="cls-2" d="M248.48,256.84c-2.17.52-4.39.78-6.63.67-5.53-.27-11.13-3.11-13.39-7.85-2.67-5.58-.31-12.01-.09-18.13.49-13.45-11.25-26.33-25.52-27.98"/>
  <path class="cls-2" d="M204.68,172.6c13.09-11.12,33.13-14.47,49.53-8.28,16.4,6.19,28.34,21.62,29.52,38.13.34,4.81-.15,9.64-1.16,14.37-.61,2.84-1.42,5.66-2.43,8.42"/>
  <path class="cls-2" d="M170.22,224.77c2.31,16.41-6.15,33.74-20.92,42.83-14.77,9.1-35.12,9.51-50.3,1.02-4.42-2.47-8.38-5.61-11.96-9.07-11-10.65-18.45-25.14-17.61-39.93.3-5.18,1.67-10.47,5.06-14.57,3.39-4.1,9.07-6.79,14.51-5.84,6.42,1.12,10.73,6.6,15.97,10.25,11.53,8.04,29.52,6.33,39.1-3.72"/>
  <rect class="cls-2" x="165.66" y="305.39" width="15.3" height="49.11"/>
  <path class="cls-2" d="M257.46,486.21H93.53l9.93-15.93c3.33-5.34,9.44-8.63,16.04-8.63h35.23v-96.47c0-4.35,3.77-7.88,8.42-7.88h20.31c4.65,0,8.42,3.53,8.42,7.88v96.47h37.81c5.09,0,9.89,2.24,12.94,6.06l14.82,18.5Z"/>
  <g>
    <ellipse class="cls-2" cx="483.07" cy="147.51" rx="15.01" ry="15.9"/>
    <line class="cls-2" x1="483.07" y1="101.45" x2="483.07" y2="112.73"/>
    <line class="cls-2" x1="483.07" y1="182.29" x2="483.07" y2="191.76"/>
    <line class="cls-2" x1="518.2" y1="148.1" x2="528.54" y2="148.1"/>
    <line class="cls-2" x1="436.88" y1="148.1" x2="447.93" y2="148.1"/>
    <line class="cls-2" x1="507.88" y1="122.47" x2="514.76" y2="115.83"/>
    <line class="cls-2" x1="507.72" y1="172.48" x2="514.92" y2="179.42"/>
    <line class="cls-2" x1="458.1" y1="170.47" x2="449.52" y2="178.74"/>
    <line class="cls-2" x1="447.93" y1="115.73" x2="457.32" y2="124.78"/>
  </g>
  <path class="cls-2" d="M423.76,399.99c16.22-6.35,31.74-17.19,38.26-33.2,2.62-6.43,3.66-13.38,4.21-20.28.95-11.92.48-24.05-2.72-35.58-4.39-15.8-13.98-30.14-26.96-40.32-.6-17.38-1.86-33.56-5.28-49.29-.62-2.85-1.35-5.77-3.05-8.15s-4.61-4.15-7.52-3.7c-2.27.35-4.13,1.92-5.85,3.43-12.04,10.65-23.57,21.87-34.54,33.61-29.94-4.3-59.63-2.64-88.17,3.91-5.77-12.46-12-22.45-19.41-31.51-2.24-2.73-5.47-5.66-8.86-4.6-2.9.9-4.13,4.22-4.95,7.11-4.92,17.35-9.5,36.12-3.14,53.86-12.53,19.29-24.1,45.28-22.24,67.55.52,6.2,2.07,12.3,4.33,18.11,9.51,24.4,34.24,38.53,60.85,44.13-13.26,12.86-20.12,31.3-21.01,49.64-.27,5.46-.04,10.97,1.19,16.3,2.45,10.65,9.01,20.32,18.04,26.61,9.03,6.29,20.45,9.12,30.43,6.62,37.04,10.4,77.38,8.93,113.54-4.13"/>
  <path class="cls-2" d="M441,432.73c-11.08,2.51-20.05,11.44-24.03,21.98-3.97,10.53-3.33,22.4.2,33.09,1.27,3.84,3.06,7.77,6.43,10.05,3.52,2.39,8.07,2.53,12.34,2.53,12.6,0,25.28-.47,37.6-3.11,12.32-2.63,24.33-7.53,34.52-17.65,6.8,2.78,11.15,9.76,12.42,16.92,1.27,7.16,1.72,14.53-.2,21.55-1.14,4.2-4.38,8.48-7.31,11.72-4.41,4.89-11.42,6.51-18.01,7.23-4.44.49-9.15.76-12.87,3.22-3.22,2.13-5.31,5.84-5.46,9.66-.15,3.83,1.66,7.68,4.7,10.05,3.13,2.44,7.24,3.22,11.2,3.67,13.56,1.55,28.18-3.87,39.03-12.06,13.85-10.47,18.71-25.35,19.47-42.58.39-8.89-.09-17.9-2.53-26.46-2.44-8.56-6.94-16.7-13.7-22.57-6.07-5.28-13.64-8.51-20.41-10.97-2.5-16.11-13.71-29.87-27.21-39.22-13.49-9.35-29.23-14.92-44.75-20.39"/>
  <line class="cls-2" x1="420.63" y1="330.96" x2="438.8" y2="318.97"/>
  <line class="cls-2" x1="210.19" y1="336.12" x2="233.4" y2="336.12"/>
  <line class="cls-2" x1="215.19" y1="363.03" x2="236.66" y2="357.57"/>
  <line class="cls-2" x1="420.63" y1="349.29" x2="448.72" y2="349.29"/>
  <path class="cls-2" d="M320.96,344.12c2.09-.42,4.07-1.41,5.68-2.84.55-.49,1.08-1.04,1.75-1.34,1.17-.51,2.51-.15,3.7.31,2.38.93,4.62,2.23,6.61,3.85"/>
  <path class="cls-2" d="M329.57,337.42c.45-2.35.6-4.76.46-7.15"/>
  <ellipse class="cls-1" cx="294.32" cy="316.18" rx="9.35" ry="8.82"/>
  <ellipse class="cls-1" cx="369.75" cy="316.18" rx="9.35" ry="8.82"/>
</svg>